HIERARCHY
ROOT Hips
{
  OFFSET 60.0527 91.5411 17.9242
  CHANNELS 6 Xposition Yposition Zposition Zrotation Xrotation Yrotation
  JOINT spine
  {
    OFFSET 0 6.84637 0.3937
    CHANNELS 3 Zrotation Xrotation Yrotation
    JOINT spine1
    {
      OFFSET 0 9.49621 0
      CHANNELS 3 Zrotation Xrotation Yrotation
      JOINT spine2
      {
        OFFSET 0 9.09909 0
        CHANNELS 3 Zrotation Xrotation Yrotation
        JOINT Neck
        {
          OFFSET 0 23.3612 1.11378
          CHANNELS 3 Zrotation Xrotation Yrotation
          JOINT Head
          {
            OFFSET 0 7.05802 0
            CHANNELS 3 Zrotation Xrotation Yrotation
            End Site
            {
              OFFSET 0 17.0844 -5.63419
            }
          }
        }
        JOINT RightShoulder
        {
          OFFSET -3.83136 9.82631 -0.533491
          CHANNELS 3 Zrotation Xrotation Yrotation
          JOINT RightArm
          {
            OFFSET 0 12.8881 0
            CHANNELS 3 Zrotation Xrotation Yrotation
            JOINT RightArmRoll
            {
              OFFSET 0 6.50617 0
              CHANNELS 3 Zrotation Xrotation Yrotation
              JOINT RightForeArm
              {
                OFFSET 0 18.9501 0
                CHANNELS 3 Zrotation Xrotation Yrotation
                JOINT RightForeArmRoll
                {
                  OFFSET 0 7.30092 0
                  CHANNELS 3 Zrotation Xrotation Yrotation
                  JOINT RightHand
                  {
                    OFFSET 0 14.6514 0
                    CHANNELS 3 Zrotation Xrotation Yrotation
                    End Site
                    {
                      OFFSET 0 0 0
                    }
                  }
                }
              }
            }
          }
        }
        JOINT LeftShoulder
        {
          OFFSET 3.83136 9.82631 -0.533491
          CHANNELS 3 Zrotation Xrotation Yrotation
          JOINT LeftArm
          {
            OFFSET 0 12.8881 0
            CHANNELS 3 Zrotation Xrotation Yrotation
            JOINT LeftArmRoll
            {
              OFFSET 0 6.50617 0
              CHANNELS 3 Zrotation Xrotation Yrotation
              JOINT LeftForeArm
              {
                OFFSET 0 18.9501 0
                CHANNELS 3 Zrotation Xrotation Yrotation
                JOINT LeftForeArmRoll
                {
                  OFFSET 0 7.30092 0
                  CHANNELS 3 Zrotation Xrotation Yrotation
                  JOINT LeftHand
                  {
                    OFFSET 0 14.6514 0
                    CHANNELS 3 Zrotation Xrotation Yrotation
                    End Site
                    {
                      OFFSET 0 0 0
                    }
                  }
                }
              }
            }
          }
        }
      }
    }
  }
  JOINT RightUpLeg
  {
    OFFSET -6.06837 -1.11278 -0.933477
    CHANNELS 3 Zrotation Xrotation Yrotation
    JOINT RightUpLegRoll
    {
      OFFSET 0 17.1796 0
      CHANNELS 3 Zrotation Xrotation Yrotation
      JOINT RightLeg
      {
        OFFSET 0 -21.2743 0
        CHANNELS 3 Zrotation Xrotation Yrotation
        JOINT RightLegRoll
        {
          OFFSET 0 21.3439 0
          CHANNELS 3 Zrotation Xrotation Yrotation
          JOINT RightFoot
          {
            OFFSET 0 17.7652 0
            CHANNELS 3 Zrotation Xrotation Yrotation
            JOINT RightToeBase
            {
              OFFSET 0 14.8508 0
              CHANNELS 3 Zrotation Xrotation Yrotation
              End Site
              {
                OFFSET 0.0062947 7.19214 -0.829004
              }
            }
          }
        }
      }
    }
  }
  JOINT LeftUpLeg
  {
    OFFSET 6.06837 -1.11278 -0.933477
    CHANNELS 3 Zrotation Xrotation Yrotation
    JOINT LeftUpLegRoll
    {
      OFFSET 0 17.1797 0
      CHANNELS 3 Zrotation Xrotation Yrotation
      JOINT LeftLeg
      {
        OFFSET 0 21.2742 0
        CHANNELS 3 Zrotation Xrotation Yrotation
        JOINT LeftLegRoll
        {
          OFFSET 0 21.5412 0
          CHANNELS 3 Zrotation Xrotation Yrotation
          JOINT LeftFoot
          {
            OFFSET 0 17.5679 0
            CHANNELS 3 Zrotation Xrotation Yrotation
            JOINT LeftToeBase
            {
              OFFSET 0 14.8508 0
              CHANNELS 3 Zrotation Xrotation Yrotation
              End Site
              {
                OFFSET -0.0282102 7.19214 -0.829005
              }
            }
          }
        }
      }
    }
  }
}
MOTION
Frames: 6
Frame Time: 0.00208333
55.0494 91.414 13.2124 -0.362822 2.54951 -1.78219 0.259178 -1.64474 0.0193357 0.518226 0.713305 0.0122488 0.518276 2.35834 0.0038133 -6.78559 20.3014 1.4111 5.44421 -8.96929 -0.125222 67.7344 3.97193 1.01314 104.482 11.6002 6.51093 4.70769e-007 -2.04157e-008 -3.55975e-006 12.8698 19.4358 -3.30383 3.33934e-006 -1.03892e-006 -3 8.02887 -4.95155 0.697739 -67.2897 0.155852 0.89632 -106.03 17.6843 -16.9922 2.12008e-008 -2.87908e-007 1.9264e-006 -12.5895 0.0950212 0.416023 -1.32642e-005 -6.96793e-007 3.03267 -8.02887 -4.95145 -0.697681 175.083 8.09262 1.02636 180 7.01568e-015 179.017 178.066 6.39144 179.882 2.55511e-006 -6.60703e-007 0.0297895 -17.9551 66.9266 18.7068 8.13649 25.2327 -3.48774 -174.408 5.81374 -0.603138 4.54188e-006 -4.6773e-006 -1.06368 -1.74596 -9.47026 0.186437 -4.18653e-007 -4.00229e-006 -0.0944038 18.1868 67.2861 -18.9522 -8.13 25.233 3.48497 
55.0466 91.4094 13.2026 -0.389543 2.64087 -1.78946 0.262034 -1.6489 0.0241157 0.523785 0.70501 0.0214921 0.523734 2.35005 0.0129441 -6.72487 20.2835 1.38962 5.41847 -9.0094 -0.126319 67.7733 3.99316 1.0178 104.398 11.5722 6.66464 4.70769e-007 -2.04157e-008 -3.55975e-006 12.8254 19.1025 -3.25177 3.33934e-006 -1.03892e-006 -3 8.02887 -4.95155 0.697739 -67.2212 0.151243 0.890719 -106.085 17.4798 -17.0457 2.12008e-008 -2.87908e-007 1.9264e-006 -12.587 0.0950558 0.398766 -1.32642e-005 -6.96793e-007 3.03045 -8.02887 -4.95145 -0.697681 175.113 8.21825 1.0025 180 7.01568e-015 179.019 178.068 6.41818 179.88 2.55511e-006 -6.60703e-007 0.0293026 -17.9394 66.906 18.6907 8.13649 25.2327 -3.48774 -174.378 5.97187 -0.619725 4.54188e-006 -4.6773e-006 -1.06189 -1.74833 -9.57198 0.188114 -4.18653e-007 -4.00229e-006 -0.0968467 18.2071 67.3144 -18.9748 -8.13 25.233 3.48497 
55.0581 91.4008 13.1861 -0.416688 2.73171 -1.79642 0.264971 -1.65309 0.0289874 0.529497 0.69665 0.0308774 0.529342 2.34169 0.0222133 -6.66301 20.2674 1.36755 5.39158 -9.05052 -0.127814 67.8132 4.01469 1.02246 104.313 11.5472 6.81975 4.70769e-007 -2.04157e-008 -3.55975e-006 12.7818 18.758 -3.1984 3.33934e-006 -1.03892e-006 -3 8.02887 -4.95155 0.697739 -67.1522 0.147273 0.884702 -106.142 17.2735 -17.0967 2.12008e-008 -2.87908e-007 1.9264e-006 -12.5869 0.095106 0.380845 -1.32642e-005 -6.96793e-007 3.02814 -8.02887 -4.95145 -0.697681 175.143 8.34291 0.978729 180 7.01568e-015 179.021 178.068 6.44464 179.879 2.55511e-006 -6.60703e-007 0.0288316 -17.9242 66.8859 18.6753 8.13649 25.2327 -3.48774 -174.348 6.1303 -0.636156 4.54188e-006 -4.6773e-006 -1.06015 -1.75008 -9.67576 0.189905 -4.18653e-007 -4.00229e-006 -0.0993465 18.2282 67.3436 -18.9981 -8.13 25.233 3.48497 
55.0334 91.3932 13.196 -0.444124 2.82218 -1.80316 0.267967 -1.65731 0.0339233 0.535316 0.688245 0.0403621 0.535057 2.33328 0.0315794 -6.60035 20.2524 1.34507 5.36389 -9.09236 -0.129589 67.8539 4.03646 1.02711 104.227 11.5243 6.97582 4.70769e-007 -2.04157e-008 -3.55975e-006 12.7391 18.4058 -3.14424 3.33934e-006 -1.03892e-006 -3 8.02887 -4.95155 0.697739 -67.0828 0.143751 0.878393 -106.2 17.0659 -17.1459 2.12008e-008 -2.87908e-007 1.9264e-006 -12.5884 0.0951671 0.36246 -1.32642e-005 -6.96793e-007 3.02578 -8.02887 -4.95145 -0.697681 175.174 8.46691 0.955025 180 7.01569e-015 179.023 178.069 6.47086 179.878 2.55511e-006 -6.60703e-007 0.0283718 -17.9094 66.8664 18.6603 8.13649 25.2327 -3.48774 -174.318 6.28894 -0.652482 4.54188e-006 -4.6773e-006 -1.05843 -1.75138 -9.781 0.191774 -4.18653e-007 -4.00229e-006 -0.101886 18.2498 67.3734 -19.022 -8.13 25.233 3.48497 
55.053 91.4096 13.178 -0.471717 2.91244 -1.80978 0.270996 -1.66153 0.0388959 0.541197 0.679815 0.0499035 0.540833 2.32485 0.0410008 -6.53725 20.2382 1.32236 5.33573 -9.13461 -0.131523 67.8951 4.05834 1.03175 104.139 11.5025 7.13244 4.70769e-007 -2.04157e-008 -3.55975e-006 12.6971 18.0491 -3.08979 3.33934e-006 -1.03892e-006 -3 8.02887 -4.95155 0.697739 -67.0131 0.140486 0.871917 -106.259 16.8576 -17.1942 2.12008e-008 -2.87908e-007 1.9264e-006 -12.5909 0.0952344 0.343808 -1.32642e-005 -6.96793e-007 3.02338 -8.02887 -4.95145 -0.697681 175.205 8.59052 0.931354 180 7.01569e-015 179.025 178.069 6.49698 179.877 2.55511e-006 -6.60703e-007 0.0279185 -17.8948 66.8471 18.6455 8.13649 25.2327 -3.48774 -174.287 6.44769 -0.668755 4.54188e-006 -4.6773e-006 -1.05674 -1.75242 -9.88705 0.19369 -4.18653e-007 -4.00229e-006 -0.104448 18.2717 67.4034 -19.0462 -8.13 25.233 3.48497 
55.0797 91.3957 13.1437 -0.499334 3.00264 -1.81637 0.274034 -1.66576 0.0438777 0.547096 0.671378 0.0594591 0.546628 2.31641 0.0504359 -6.47403 20.2241 1.29959 5.30745 -9.17696 -0.133498 67.9364 4.08026 1.0364 104.052 11.4809 7.28918 4.70769e-007 -2.04157e-008 -3.55975e-006 12.6559 17.6913 -3.03551 3.33934e-006 -1.03892e-006 -3 8.02887 -4.95155 0.697739 -66.9434 0.137284 0.865399 -106.318 16.6493 -17.2424 2.12008e-008 -2.87908e-007 1.9264e-006 -12.5936 0.0953032 0.325091 -1.32642e-005 -6.96793e-007 3.02098 -8.02887 -4.95145 -0.697681 175.237 8.71404 0.907683 180 7.0157e-015 179.027 178.069 6.52306 179.876 2.55511e-006 -6.60703e-007 0.0274667 -17.8803 66.8278 18.6308 8.13649 25.2327 -3.48774 -174.256 6.60647 -0.685027 4.54188e-006 -4.6773e-006 -1.05504 -1.75339 -9.99332 0.195618 -4.18653e-007 -4.00229e-006 -0.107016 18.2938 67.4336 -19.0705 -8.13 25.233 3.48497 
